<svg width="68" height="67" viewBox="0 0 68 67" fill="none" xmlns="http://www.w3.org/2000/svg">
<path fill-rule="evenodd" clip-rule="evenodd" d="M34.155 0.5C43.108 0.5 51.5084 3.93256 57.8406 10.1698C64.1729 16.407 67.6719 24.6814 67.6719 33.5C67.6719 42.3186 64.187 50.593 57.8548 56.8302C51.3951 63.193 42.8105 66.5 34.1409 66.5C28.7436 66.5 23.3039 65.2163 18.3316 62.5791C13.8693 65.7465 9.50613 66.4302 6.54543 66.4302C5.44048 66.4302 4.53386 66.3326 3.89638 66.2349C2.53644 66.0256 1.48816 64.9791 1.27567 63.6395C1.06318 62.3 1.75731 61.0023 2.98976 60.4023C5.55381 59.1605 7.28207 56.6767 8.35869 54.5419C-2.61999 41.5233 -1.77003 22.2256 10.4694 10.1698C16.8016 3.93256 25.2021 0.5 34.155 0.5ZM19.1249 58.714C30.7694 65.4535 45.5729 63.5837 55.1349 54.1651C66.7086 42.7651 66.7086 24.2349 55.1208 12.8349C43.5613 1.43488 24.7346 1.43488 13.161 12.8349C2.08313 23.7465 1.54482 41.3279 11.9144 52.8674C12.1835 53.1744 12.3393 53.5512 12.3818 53.9279C12.481 54.3186 12.4527 54.7372 12.2827 55.1419C11.2202 57.5279 9.40697 60.5977 6.53127 62.6628H6.54543C9.03865 62.6628 12.8068 62.0488 16.6458 59.1186C16.6883 59.0767 16.745 59.0349 16.8016 59.007C17.4108 58.407 18.3599 58.2674 19.1249 58.714Z" fill="white"/>
<circle cx="34.1719" cy="34" r="2.5" fill="white"/>
<circle cx="46.1719" cy="34" r="2.5" fill="white"/>
<circle cx="22.1719" cy="34" r="2.5" fill="white"/>
</svg>
